<svg width="524" height="149" viewBox="0 0 524 149" fill="none" xmlns="http://www.w3.org/2000/svg">
<path d="M38.6236 114.11C54.5686 141.728 94.4313 141.728 110.376 114.11L144.287 55.3757C162.263 24.2397 122.136 -7.67712 95.8432 16.8444C83.8227 28.0553 65.1773 28.0553 53.1567 16.8444C26.8642 -7.67713 -13.2634 24.2395 4.71305 55.3756L38.6236 114.11Z" fill="#B4BEFE"/>
<path d="M209.14 110.381C181.522 94.4355 181.522 54.5729 209.14 38.6278L267.874 4.71733C299.01 -13.2591 330.927 26.8684 306.406 53.1609C295.195 65.1815 295.195 83.8268 306.406 95.8474C330.927 122.14 299.011 162.267 267.875 144.291L209.14 110.381Z" fill="#CDD6F4"/>
<path d="M87.6277 27.1398C103.573 -0.47785 143.435 -0.477926 159.38 27.1397L193.291 85.8744C211.267 117.01 171.14 148.927 144.847 124.406C132.827 113.195 114.181 113.195 102.161 124.406C75.8683 148.927 35.7408 117.011 53.7172 85.8745L87.6277 27.1398Z" fill="#B4BEFE"/>
<path d="M136.628 114.11C152.573 141.728 192.435 141.728 208.38 114.11L242.291 55.3757C260.267 24.2397 220.14 -7.67712 193.847 16.8444C181.827 28.0553 163.181 28.0553 151.161 16.8444C124.868 -7.67713 84.7408 24.2395 102.717 55.3756L136.628 114.11Z" fill="#B4BEFE"/>
<circle cx="346.5" cy="74.5" r="27.5" fill="#EBA0AC"/>
<circle cx="421.5" cy="74.5" r="27.5" fill="#EBA0AC"/>
<circle cx="496.5" cy="74.5" r="27.5" fill="#EBA0AC"/>
</svg>
